<svg xmlns="http://www.w3.org/2000/svg" viewBox="0 0 512 512" role="img" aria-label="WireGuard" fill="none">
  <circle cx="256" cy="256" r="256" fill="#88171A"/>
  <path fill="#fff" d="M365 164c-14-26-44-42-88-42-43 0-79 15-105 43-27 29-41 68-41 115 0 44 11 77 34 100 22 22 54 34 93 34 34 0 62-9 84-28 22-18 33-42 33-69 0-23-7-41-21-54-13-12-31-19-54-19-15 0-29 3-40 10-11 6-20 15-26 26h-2c1-24 7-43 19-57 12-15 29-22 50-22 11 0 21 2 30 6 9 5 16 11 21 18l23-61Zm-117 96c11 0 20 4 27 11 7 8 11 18 11 30 0 15-5 27-14 36-9 10-21 15-35 15-13 0-24-5-32-14-8-10-12-22-12-37 0-14 4-26 13-35 8-10 20-15 32-15Z"/>
</svg>
